<?xml version="1.0" encoding="UTF-8" standalone="no"?>
<!DOCTYPE svg PUBLIC "-//W3C//DTD SVG 1.1//EN" "http://www.w3.org/Graphics/SVG/1.1/DTD/svg11.dtd">
<svg width="100%" height="100%" viewBox="0 0 699 407" version="1.1" xmlns="http://www.w3.org/2000/svg" xmlns:xlink="http://www.w3.org/1999/xlink" xml:space="preserve" xmlns:serif="http://www.serif.com/" style="fill-rule:evenodd;clip-rule:evenodd;stroke-linejoin:round;stroke-miterlimit:2;">
    <g transform="matrix(1,0,0,1,-5551.07,-336.765)">
        <g transform="matrix(1,0,0,1,5360.49,0)">
            <g transform="matrix(1,0,0,1,-9.09495e-13,-26.7311)">
                <g transform="matrix(0.416197,0,0,0.416197,319.372,246.898)">
                    <g transform="matrix(279.925,0,0,-279.925,530.102,699.881)">
                        <path d="M0,0.5L0,-0.5L1,0.5L0,0.5Z" style="fill:rgb(46,46,153);fill-rule:nonzero;"/>
                    </g>
                    <g transform="matrix(6.12323e-17,1,-1,6.12323e-17,1090.02,-2669.64)">
                        <path d="M2949.79,559.924L3509.64,559.924L3229.72,839.843L2949.79,559.924Z" style="fill:rgb(77,77,255);fill-rule:nonzero;"/>
                    </g>
                </g>
                <g transform="matrix(1.48859,0,0,1.48859,-2417.42,37.8824)">
                    <text x="1749.73px" y="473.664px" style="font-family:'Poppins-Medium', 'Poppins';font-weight:500;font-size:66.667px;fill:rgb(45,55,72);">Apurva Digital</text>
                </g>
            </g>
        </g>
    </g>
</svg>
